<?xml version="1.0" standalone="no"?>
<!DOCTYPE svg PUBLIC "-//W3C//DTD SVG 20010904//EN"
 "http://www.w3.org/TR/2001/REC-SVG-20010904/DTD/svg10.dtd">
<svg version="1.0" xmlns="http://www.w3.org/2000/svg"
 width="512.000000pt" height="512.000000pt" viewBox="0 0 512.000000 512.000000"
 preserveAspectRatio="xMidYMid meet">
<metadata>
Created by potrace 1.11, written by Peter Selinger 2001-2013
</metadata>
<g transform="translate(0.000000,512.000000) scale(0.100000,-0.100000)"
fill="#000000" stroke="none">
<path d="M1435 4856 c-287 -142 -487 -287 -712 -517 -185 -190 -325 -387 -449
-632 l-77 -154 78 -232 77 -232 262 -175 261 -174 3 177 2 177 -85 86 -85 85
0 133 c0 128 1 132 23 137 12 2 150 23 307 45 l285 40 220 133 220 132 132
220 133 220 132 45 132 45 43 129 c23 71 41 131 40 132 -2 2 -121 23 -266 47
l-263 44 -119 82 c-65 44 -125 81 -131 81 -7 0 -80 -33 -163 -74z"/>
<path d="M3530 4765 l-165 -84 -180 0 -180 -1 -88 -176 c-49 -97 -87 -177 -85
-179 2 -1 61 -21 131 -45 l128 -42 174 43 174 43 148 -47 c81 -26 241 -65 355
-87 l207 -41 131 87 131 88 -63 64 c-84 85 -242 215 -354 289 -82 56 -285 174
-295 172 -2 0 -78 -38 -169 -84z"/>
<path d="M2871 3836 l-133 -134 43 -306 43 -306 309 -132 308 -132 177 44 177
43 133 -88 132 -88 0 -174 0 -173 175 -350 175 -350 0 -183 0 -182 120 -120
c65 -65 121 -117 124 -114 20 19 120 186 172 284 376 716 390 1555 37 2295
l-64 135 -277 -93 -277 -94 -269 43 -269 44 -89 132 -88 133 -263 0 -262 0
-134 -134z"/>
<path d="M927 2782 l-217 -217 0 -138 0 -137 87 -174 87 -174 218 -43 218 -43
0 -438 0 -438 86 -217 c48 -120 92 -223 98 -229 6 -6 66 -30 134 -52 l122 -41
0 218 0 218 178 134 177 134 3 135 2 135 175 175 175 175 43 217 c24 120 42
220 39 223 -3 3 -83 5 -177 5 l-172 0 -132 220 -132 220 -309 0 -310 0 -88
175 -87 175 -218 -218z"/>
</g>
</svg>
